<?xml version="1.0" encoding="UTF-8" standalone="no"?>
<svg width="536px" height="536px" viewBox="0 0 536 536" version="1.1" xmlns="http://www.w3.org/2000/svg" xmlns:xlink="http://www.w3.org/1999/xlink" xmlns:sketch="http://www.bohemiancoding.com/sketch/ns">
    <!-- Generator: Sketch 3.3.3 (12072) - http://www.bohemiancoding.com/sketch -->
    <title>Favicon</title>
    <desc>Created with Sketch.</desc>
    <defs></defs>
    <g id="Page-1" stroke="none" stroke-width="1" fill="none" fill-rule="evenodd" sketch:type="MSPage">
        <g id="Favicon" sketch:type="MSArtboardGroup" fill="#000000">
            <path d="M536,195.933015 C510.753741,195.931364 485.482365,196.648109 482.051931,198.083248 C474.730727,201.146109 472.208831,209.707696 472.208831,209.707696 C472.208831,209.707696 468.830471,220.721644 477.633533,226.946205 C486.436595,233.170766 487.012551,231.831324 489.360327,236.452412 C491.708102,241.073501 482.051931,453.563362 279.254682,453.563362 C76.4574324,453.563362 67.3649433,272.799757 61.5942865,264.289048 C53.1931298,251.898812 27,245.21473 27,245.21473 L27,177.778355 C27,177.778355 46.2535331,175.276075 64.3885521,171.583142 C82.5235712,167.890209 97.8765348,162.893605 97.8765348,162.893605 C97.8765348,162.893605 166.638761,82.4366379 271.564271,82.4366379 C376.489781,82.4366379 457.085685,156.482289 457.085685,156.482289 C457.085685,156.482289 495.649955,149.508976 535.91301,149.508976 M275.005197,418.34256 C368.821307,418.34256 444.874292,350.001242 444.874292,265.697954 C444.874292,181.394666 368.821307,113.053348 275.005197,113.053348 C181.189086,113.053348 105.136102,181.394666 105.136102,265.697954 C105.136102,350.001242 181.189086,418.34256 275.005197,418.34256 L275.005197,418.34256 L275.005197,418.34256 Z" id="Path-1" sketch:type="MSShapeGroup"></path>
        </g>
    </g>
</svg>