<svg width="938" height="324" viewBox="0 0 938 324" fill="none" xmlns="http://www.w3.org/2000/svg">
<path d="M836.824 262.259C815.429 287.795 790.913 303.18 759.82 314.708C741.163 321.626 734.163 323.126 713.163 323.126C692.163 323.126 680.163 323.126 665.663 319.8C620.47 305.74 581.313 273.939 557.773 232.927C555.747 229.398 553.989 227.718 549.064 227.853C539.885 228.105 533.742 221.904 529.895 213.998C524.481 202.87 521.014 191.012 518.425 178.945C516.507 170.006 514.941 160.979 514.362 151.821C514.017 146.373 515.446 141.552 519.579 137.822C521.285 136.282 521.719 134.606 521.211 132.462C517.623 117.326 519.3 102.372 522.859 87.4963C523.752 83.7654 524.42 80.0325 524.536 76.1698C524.755 68.8664 523.32 66.349 516.332 63.7742C506.091 60.0005 495.322 58.3041 484.55 57.7528C464.576 56.7306 444.573 56.7493 425.049 62.2711C423.131 62.8136 421.233 63.4467 419.362 64.1354C414.241 66.0197 411.715 69.4711 411.943 75.1797C412.271 83.4096 415.004 91.159 416.236 99.2082C417.916 110.187 418.216 121.043 415.745 131.906C415.378 133.522 414.48 135.246 416.081 136.559C423.693 142.8 422.99 150.986 421.834 159.473C419.441 177.038 415.299 194.147 408.721 210.609C405.442 218.816 400.242 225.331 391.113 227.618C390.147 227.86 388.994 228.447 388.21 228.144C382.855 226.074 380.958 229.59 378.788 233.388C355.766 273.688 306.163 308.338 277.886 315.005C256.163 320.126 251.163 321.126 223.163 321.126C195.163 321.126 184.663 317.677 178.523 315.672C123.749 297.78 88.9544 259.302 67.5265 207.355C58.4218 185.282 53.9062 162.147 54.31 138.174C54.3521 135.671 53.6817 133.732 51.8295 131.967C43.1457 123.689 34.904 114.906 25.804 107.122C19.9609 102.124 12.5747 99.0052 7.06618 93.3888C6.0181 92.3202 4.8017 91.4175 3.74415 90.3573C-1.89759 84.7011 -1.03352 80.973 5.4593 76.3853C17.7212 67.7212 31.7305 66.4549 45.9167 65.9347C53.5676 65.6542 61.1733 64.3004 68.8605 64.9401C71.2403 65.1381 72.9427 64.1752 74.2691 62.1225C94.5391 30.7525 125.288 15.9248 160.259 7.87066C186.842 1.74832 213.849 -0.546833 241.056 0.107785C272.338 0.860463 303.151 4.33073 332.024 17.8493C370.322 35.781 394.009 65.0823 401.996 106.796C402.121 107.449 402.122 108.137 402.326 108.761C402.797 110.21 403.349 111.795 405.235 111.672C407.206 111.544 407.392 109.854 407.528 108.342C408.173 101.153 406.111 94.5 403.429 87.9743C400.962 81.9702 398.273 76.0609 398.411 69.3141C398.579 61.0821 401.276 56.6305 409.065 53.6362C421.611 48.8138 434.89 47.3127 448.114 45.9259C471.998 43.4211 495.569 45.8471 519.001 50.8093C537.582 54.7444 542.606 64.7413 535.582 82.6644C532.654 90.1363 529.54 97.4913 529.087 105.605C528.956 107.947 527.974 111.452 531.21 111.969C534.86 112.551 534.216 108.836 534.67 106.562C544.026 59.7055 572.437 29.4652 616.461 12.9451C637.39 5.09163 659.252 2.15157 681.444 0.716497C700.96 -0.545481 720.426 -0.131854 739.81 1.93253C770.626 5.21452 800.763 11.2915 827.646 27.8913C841.419 36.3953 853.078 47.3011 861.706 61.1158C863.692 64.2945 866.01 65.0354 869.504 65.0795C883.478 65.2556 897.426 66.1516 911.298 67.8914C920.019 68.9851 927.132 73.9035 934.177 78.5774C937.765 80.9573 938.018 85.1751 934.95 88.181C928.943 94.0655 923.303 100.534 915.113 103.718C913.765 104.242 912.521 105.243 911.462 106.265C902.945 114.474 894.525 122.784 885.978 130.963C883.768 133.078 882.843 135.398 882.813 138.461C882.455 175.002 872.221 208.667 853.18 239.765C848.38 247.603 842.954 254.962 836.824 262.259ZM71.8612 123.69C69.6352 139.027 70.8251 154.339 73.5765 169.392C78.6559 197.182 89.952 222.447 107.036 244.998C144.085 293.906 193.143 314.361 253.751 305.08C293.493 298.994 325.797 278.76 350.914 247.709C379.245 212.685 391.368 172.07 389.18 127.216C388.448 112.195 386.041 97.4329 379.365 83.6457C363.645 51.1841 336.731 32.8996 302.991 23.4712C276.433 16.0501 249.164 14.9302 221.776 15.2434C191.971 15.5842 163.207 21.0628 135.62 32.4502C116.736 40.2452 100.238 51.2576 89.3314 68.983C79.2065 85.4383 75.0038 103.983 71.8612 123.69ZM550.544 171.884C550.89 173.848 551.117 175.842 551.598 177.772C560.364 212.956 577.12 243.478 604.746 267.414C633.835 292.617 667.338 306.647 706.249 307.155C731.223 307.481 754.872 302.816 777.074 291.134C803.175 277.402 823.082 257.15 838.316 232.286C862.509 192.801 871.988 150.587 861.442 104.588C854.223 73.1007 837.988 49.1086 807.981 35.4289C781.897 23.5372 754.484 17.0504 725.948 15.5627C709.648 14.7129 693.309 14.9128 677.004 16.3068C650.409 18.5806 624.508 23.2992 601.074 37.0667C571.361 54.5229 553.453 79.8977 548.804 114.383C546.242 133.389 547.12 152.223 550.544 171.884ZM906.623 96.7771C906.926 96.8835 907.223 97.0224 907.534 97.0777C907.636 97.0957 907.899 96.8643 907.882 96.801C907.271 94.4674 905.186 94.6881 903.528 94.5443C900.702 94.2992 897.572 94.5556 895.366 92.7653C889.329 87.8653 882.565 89.9864 875.235 89.5766C877.326 98.3588 879.245 106.419 881.262 114.888C882.702 114.172 883.616 113.994 884.086 113.441C889.204 107.423 895.882 103.234 901.843 98.2089C903.026 97.211 904.112 95.5703 906.623 96.7771ZM37.399 94.2156C35.796 94.4403 34.193 94.6651 31.4211 95.0537C39.8322 101.92 47.4571 108.145 55.6069 114.798C57.6303 106.12 59.48 98.1867 61.2634 90.5381C59.7348 89.2727 58.5393 89.4939 57.3922 89.4483C50.5342 89.1761 43.9333 89.9781 37.399 94.2156Z" fill="black"/>
</svg>
